<mxfile host="app.diagrams.net" agent="Mozilla/5.0 (Macintosh; Intel Mac OS X 10_15_7) AppleWebKit/605.1.15 (KHTML, like Gecko) Version/18.0.1 Safari/605.1.15" version="25.0.3">
  <diagram name="페이지-1" id="VKQHQ1Zvz5XlbexEdhiX">
    <mxGraphModel dx="1336" dy="1559" grid="0" gridSize="10" guides="1" tooltips="1" connect="1" arrows="1" fold="1" page="0" pageScale="1" pageWidth="827" pageHeight="1169" math="0" shadow="0">
      <root>
        <mxCell id="0" />
        <mxCell id="1" parent="0" />
        <mxCell id="BnoAAYT04ecssrMd11ld-1" value="" style="rounded=0;whiteSpace=wrap;html=1;" vertex="1" parent="1">
          <mxGeometry x="-247" y="57" width="304" height="264" as="geometry" />
        </mxCell>
        <mxCell id="BnoAAYT04ecssrMd11ld-2" value="" style="rounded=0;whiteSpace=wrap;html=1;" vertex="1" parent="1">
          <mxGeometry x="129" y="-387" width="304" height="264" as="geometry" />
        </mxCell>
        <mxCell id="BnoAAYT04ecssrMd11ld-3" value="Text" style="text;html=1;align=center;verticalAlign=middle;resizable=0;points=[];autosize=1;strokeColor=none;fillColor=none;fontSize=16;" vertex="1" parent="1">
          <mxGeometry x="177.5" y="-25.5" width="47" height="31" as="geometry" />
        </mxCell>
        <mxCell id="BnoAAYT04ecssrMd11ld-4" value="Text" style="text;html=1;align=center;verticalAlign=middle;resizable=0;points=[];autosize=1;strokeColor=none;fillColor=none;fontSize=16;" vertex="1" parent="1">
          <mxGeometry x="317.5" y="-51.5" width="47" height="31" as="geometry" />
        </mxCell>
        <mxCell id="BnoAAYT04ecssrMd11ld-5" value="Text" style="text;html=1;align=center;verticalAlign=middle;resizable=0;points=[];autosize=1;strokeColor=none;fillColor=none;fontSize=16;" vertex="1" parent="1">
          <mxGeometry x="230.5" y="51.5" width="47" height="31" as="geometry" />
        </mxCell>
      </root>
    </mxGraphModel>
  </diagram>
</mxfile>
